<?xml version="1.0" encoding="UTF-8"?>
<svg width="52px" height="52px" viewBox="0 0 52 52" version="1.1" xmlns="http://www.w3.org/2000/svg" xmlns:xlink="http://www.w3.org/1999/xlink">
    <title>twitter备份</title>
    <defs>
        <polygon id="path-1" points="0 0 51.3632653 0 51.3632653 51.3632653 0 51.3632653"></polygon>
    </defs>
    <g id="页面-1" stroke="none" stroke-width="1" fill="none" fill-rule="evenodd">
        <g id="Seven" transform="translate(-2635.000000, -135.000000)">
            <g id="twitter备份" transform="translate(2635.000000, 135.000000)">
                <mask id="mask-2" fill="white">
                    <use xlink:href="#path-1"></use>
                </mask>
                <g id="Clip-2"></g>
                <path d="M17.6564901,13.519092 L17.6564901,44.6904293 C17.6564901,45.5135623 17.2636412,46.2858308 16.3704795,46.2858308 C16.0694885,46.2842031 15.7727434,46.2115396 15.5045137,46.0730718 L3.30755197,39.88074 C2.57217241,39.5083537 1.996411,38.5523917 1.996411,37.7548944 L1.996411,7.45941476 C1.996411,6.79451397 2.31042617,6.1839074 3.01860982,6.1839074 C3.43842509,6.1839074 3.80597143,6.39649196 4.17351778,6.58175502 L17.5758204,13.3848678 C17.6114505,13.4225948 17.6383595,13.467995 17.6547114,13.5175225 L17.6564901,13.519092 Z M19.3349479,16.2028776 L33.3416996,39.2156648 L19.3349479,32.1475334 L19.3349479,16.2028776 Z M49,16.6808877 L49,44.6904293 C49,45.5680309 48.501351,46.1786375 47.6369344,46.1786375 C47.1904396,46.1786375 46.7706817,46.0458085 46.4046845,45.833282 L34.8373022,39.9879333 L49,16.6808877 Z M48.9211089,13.4936307 C48.9211089,13.600824 35.3610816,35.8958113 34.3119163,37.5966041 L24.0823546,20.7491179 L32.581247,6.74527713 C32.876443,6.27319641 33.392821,5.99091294 33.9441405,5.99999096 C34.1808137,5.99999096 34.4159378,6.05288044 34.625702,6.16007375 L48.8153662,13.335631 C48.8673482,13.3626618 48.9211089,13.4155609 48.9211089,13.4954909 L48.9211089,13.4936307 Z" id="Fill-1" fill="white" mask="url(#mask-2)"></path>
            </g>
        </g>
    </g>
</svg>